<svg width="63" height="63" viewBox="0 0 63 63" fill="none" xmlns="http://www.w3.org/2000/svg">
<path d="M31.5 0C14.1307 0 0 14.1307 0 31.5C0 48.8693 14.1307 63 31.5 63C48.8693 63 63 48.8693 63 31.5C63 14.1307 48.8693 0 31.5 0ZM29.6543 15.4616C26.8463 15.341 24.0667 14.9464 21.4126 14.3047C21.8365 13.3001 22.2965 12.3354 22.7925 11.4212C24.8276 7.6712 27.326 5.03963 29.6543 4.0865V15.4616ZM29.6543 19.1559V29.6543H18.1259C18.2883 25.5567 18.9867 21.489 20.1417 17.7889C23.2025 18.5599 26.4157 19.0266 29.6543 19.1559ZM29.6543 33.3457V43.8441C26.4157 43.9734 23.2025 44.4401 20.1417 45.2111C18.9867 41.511 18.2883 37.4433 18.1259 33.3457H29.6543ZM29.6543 47.5384V58.9135C27.326 57.9604 24.8276 55.3288 22.7925 51.5788C22.2965 50.6646 21.8365 49.6999 21.4126 48.6953C24.0667 48.0536 26.8458 47.659 29.6543 47.5384ZM33.3457 47.5384C36.1537 47.659 38.9333 48.0536 41.5874 48.6953C41.1635 49.6999 40.7035 50.6646 40.2075 51.5788C38.1724 55.3288 35.674 57.9604 33.3457 58.9135V47.5384ZM33.3457 43.8441V33.3457H44.8741C44.7117 37.4433 44.0133 41.511 42.8583 45.2111C39.7975 44.4401 36.5843 43.9734 33.3457 43.8441ZM33.3457 29.6543V19.1559C36.5843 19.0266 39.7975 18.5599 42.8583 17.7889C44.0133 21.489 44.7117 25.5567 44.8741 29.6543H33.3457ZM33.3457 15.4616V4.0865C35.674 5.03963 38.1724 7.6712 40.2075 11.4212C40.7035 12.3354 41.1635 13.3001 41.5874 14.3047C38.9333 14.9464 36.1537 15.341 33.3457 15.4616ZM43.4519 9.66062C42.5276 7.95719 41.5235 6.45564 40.4651 5.1747C44.1556 6.43497 47.4985 8.4513 50.3098 11.0372C48.7064 11.8961 46.9784 12.6421 45.1606 13.2655C44.6449 12.0129 44.0748 10.8079 43.4519 9.66062ZM19.5481 9.66062C18.9252 10.8079 18.3551 12.0129 17.8394 13.2655C16.0216 12.6421 14.2936 11.8957 12.6902 11.0372C15.5015 8.4513 18.8444 6.43497 22.5349 5.1747C21.4765 6.45564 20.4729 7.95671 19.5481 9.66062ZM16.5907 16.7349C15.3309 20.7651 14.5902 25.1588 14.4306 29.6543H3.75437C4.14947 23.6553 6.45323 18.1691 10.0658 13.8019C12.0706 14.9516 14.2662 15.9351 16.5907 16.7349ZM14.4306 33.3457C14.5902 37.8417 15.3309 42.2349 16.5907 46.2651C14.2662 47.0649 12.0706 48.0484 10.0658 49.1981C6.45323 44.8309 4.14947 39.3447 3.75437 33.3457H14.4306ZM17.8394 49.7345C18.3551 50.9871 18.9252 52.1921 19.5481 53.3394C20.4729 55.0428 21.4765 56.5444 22.5349 57.8253C18.8444 56.565 15.5015 54.5487 12.6907 51.9628C14.2931 51.1043 16.0216 50.3579 17.8394 49.7345ZM43.4519 53.3394C44.0748 52.1921 44.6449 50.9871 45.1606 49.7345C46.9784 50.3579 48.7064 51.1043 50.3098 51.9628C47.4985 54.5487 44.1556 56.565 40.4651 57.8253C41.5235 56.5444 42.5271 55.0433 43.4519 53.3394ZM46.4093 46.2651C47.6691 42.2349 48.4098 37.8412 48.5694 33.3457H59.2456C58.8505 39.3447 56.5468 44.8309 52.9342 49.1981C50.9294 48.0484 48.7338 47.0649 46.4093 46.2651ZM48.5694 29.6543C48.4098 25.1583 47.6691 20.7651 46.4093 16.7349C48.7338 15.9351 50.9294 14.9516 52.9342 13.8019C56.5468 18.1691 58.8505 23.6553 59.2456 29.6543H48.5694Z" fill="black"/>
</svg>
