<svg width="77" height="51" viewBox="0 0 77 51" fill="none" xmlns="http://www.w3.org/2000/svg">
<path d="M70.2324 0H6.76758C3.03594 0 0 2.93498 0 6.54253V44.4575C0 48.065 3.03594 51 6.76758 51H70.2324C73.9641 51 77 48.065 77 44.4575V6.54253C77 2.93498 73.9641 0 70.2324 0ZM69.3492 4.36168L41.1851 27.034C39.6291 28.2864 37.3706 28.2864 35.8149 27.034L7.65082 4.36168H69.3492ZM4.51172 7.51053L26.7232 25.391L4.51172 39.6817V7.51053ZM70.2324 46.6383H6.76758C5.67755 46.6383 4.76588 45.8869 4.55699 44.892L30.3407 28.303L32.928 30.3858C34.5423 31.6853 36.5213 32.335 38.5002 32.335C40.479 32.335 42.4578 31.6853 44.0723 30.3858L46.6596 28.303L72.4432 44.8919C72.2341 45.8871 71.3225 46.6383 70.2324 46.6383ZM72.4883 39.6817L50.2768 25.3911L72.4883 7.51053V39.6817Z" fill="black"/>
</svg>
