<svg width="52" height="83" viewBox="0 0 52 83" fill="none" xmlns="http://www.w3.org/2000/svg">
<path d="M25.9999 39.758C33.5156 39.758 39.6301 33.655 39.6301 26.1536C39.6301 18.6521 33.5156 12.5494 25.9999 12.5494C18.4842 12.5494 12.3697 18.6521 12.3697 26.1536C12.3697 33.655 18.4842 39.758 25.9999 39.758ZM25.9999 17.412C30.8292 17.412 34.7583 21.3336 34.7583 26.1536C34.7583 30.9738 30.8294 34.8953 25.9999 34.8953C21.1704 34.8953 17.2415 30.9738 17.2415 26.1536C17.2415 21.3336 21.1706 17.412 25.9999 17.412Z" fill="black"/>
<path d="M11.1588 50.5994C14.8509 55.5886 13.3676 53.6483 24.0021 68.8047C24.9687 70.1877 27.0241 70.1942 27.9962 68.8068C38.6788 53.5785 37.209 55.5072 40.841 50.5992C44.5201 45.627 48.3247 40.4855 50.4095 34.4606C53.427 25.7389 52.1226 17.1094 46.7371 10.1613C46.7369 10.1613 46.7369 10.1612 46.7368 10.1612C41.8035 3.79855 34.0513 0 25.9999 0C17.9485 0 10.1963 3.79855 5.26287 10.1615C-0.122681 17.1095 -1.42705 25.7392 1.5906 34.4609C3.67512 40.4857 7.47974 45.6272 11.1588 50.5994ZM9.11588 13.1372C13.1332 7.95601 19.4451 4.86263 25.9999 4.86263C32.5547 4.86263 38.8666 7.95601 42.8839 13.1372L42.8836 13.137C47.2305 18.7447 48.2675 25.754 45.8043 32.8735C43.9629 38.1952 40.3835 43.0324 36.922 47.7104C34.2269 51.3525 35.0335 50.2385 25.9999 63.1648C16.9757 50.2515 17.7721 51.3514 15.0778 47.7104C11.6163 43.0324 8.03692 38.1951 6.19551 32.8735C3.73228 25.7538 4.76934 18.7447 9.11588 13.1372Z" fill="black"/>
<path d="M13.1595 61.1423C12.4411 60.0072 10.9367 59.6679 9.79924 60.3853L2.87304 64.752C1.36211 65.7046 1.36065 67.9096 2.87304 68.8631L24.6991 82.6243C25.4937 83.1253 26.5064 83.1252 27.3008 82.6243L49.1269 68.8631C50.638 67.9105 50.6393 65.7055 49.1269 64.752L42.2007 60.3853C41.063 59.6681 39.5587 60.0072 38.8404 61.1423C38.1218 62.2776 38.4615 63.7792 39.599 64.4964L43.2649 66.8076L25.9999 77.6929L8.73506 66.8076L12.401 64.4964C13.5384 63.7794 13.878 62.2777 13.1595 61.1423Z" fill="black"/>
</svg>
