<svg width="61" height="60" viewBox="0 0 61 60" fill="none" xmlns="http://www.w3.org/2000/svg">
<path d="M59.2438 45.0461L50.4273 36.3314C49.2433 35.1675 47.6578 34.5263 45.9635 34.5263C44.2004 34.5263 42.5357 35.2122 41.277 36.4566L37.845 39.8467C35.1782 38.3821 31.6338 36.3678 27.9538 32.7319C24.2781 29.0989 22.2392 25.6071 20.7493 22.958L24.1845 19.5664C26.7385 17.0377 26.7907 12.981 24.3013 10.5236L15.4866 1.8141C14.3059 0.644261 12.7204 0 11.0218 0C9.29805 0 7.66738 0.65573 6.416 1.84926C5.65896 2.45163 1.85987 5.76518 0.443955 12.5987C-1.53848 22.1637 3.01638 31.3666 16.1657 44.3637C30.8545 58.8723 43.3944 60 46.8879 60C47.6152 60 48.054 59.9556 48.1711 59.9422C55.0215 59.1488 57.4743 56.1429 59.2653 53.9481C61.5858 51.1035 61.5778 47.3606 59.2438 45.0461ZM56.3183 51.6007C54.6349 53.6636 53.0452 55.6119 47.7307 56.2274C47.728 56.2277 47.4373 56.2598 46.8879 56.2598C43.7623 56.2598 32.5021 55.2112 18.8423 41.7191C6.71629 29.7332 2.46021 21.5137 4.15219 13.3487C5.38718 7.3883 8.66592 4.85489 8.79336 4.75865L8.90641 4.67613L9.00558 4.57789C9.55292 4.0376 10.2688 3.7399 11.0216 3.7399C11.707 3.7399 12.3408 3.99372 12.8082 4.45697L21.6249 13.1684C22.6394 14.1697 22.5854 15.8547 21.5061 16.9233L17.6212 20.7585L17.5574 20.8245C16.5449 21.9263 16.6641 23.4153 17.2217 24.3849C18.831 27.2542 21.0352 31.1838 25.2767 35.3757C29.504 39.5525 33.4754 41.7286 36.3713 43.3155C36.6613 43.4764 37.2598 43.7461 38.0091 43.7461C38.8938 43.7461 39.7061 43.3761 40.3074 42.7017L43.9534 39.1004C44.4977 38.5624 45.2113 38.2659 45.963 38.2659C46.6499 38.2659 47.2871 38.5205 47.7534 38.9788L56.5641 47.6877C57.6833 48.7975 57.2212 50.4942 56.3183 51.6007Z" fill="#000002"/>
<path d="M36.9555 9.16301C40.2075 9.53276 44.0366 11.479 46.7105 14.1211C49.4093 16.7877 51.384 20.6094 51.7405 23.8573C51.8458 24.8155 52.6659 25.5256 53.6197 25.5256C53.6879 25.5256 53.757 25.5218 53.8262 25.5146C54.8653 25.4032 55.6163 24.4807 55.5035 23.4539C55.0526 19.3483 52.7088 14.7589 49.3871 11.4768C46.0965 8.22529 41.499 5.91528 37.3883 5.44779C36.3504 5.32886 35.4114 6.06587 35.2918 7.0916C35.1722 8.11733 35.9169 9.04483 36.9555 9.16301Z" fill="#000002"/>
<path d="M35.1873 16.9964C36.9462 17.1966 39.3803 18.4856 40.9749 20.0611C42.5831 21.6503 43.8903 24.0782 44.0828 25.8347C44.188 26.7932 45.0082 27.5032 45.962 27.5032C46.0302 27.5032 46.0991 27.4995 46.1682 27.4923C47.2074 27.3808 47.9586 26.4583 47.8458 25.4316C47.5167 22.4327 45.5018 19.245 43.651 17.4165C41.817 15.6041 38.6223 13.6227 35.6201 13.2809C34.5807 13.1615 33.643 13.8987 33.5233 14.9245C33.404 15.9504 34.1489 16.8782 35.1873 16.9964Z" fill="#000002"/>
</svg>
